<?xml version="1.0" encoding="UTF-8" standalone="no"?>
<svg
   xml:space="preserve"
   viewBox="0 0 271.5 181"
   version="1.1"
   id="svg317"
   sodipodi:docname="index_icon.svg"
   inkscape:version="1.2.2 (b0a8486541, 2022-12-01)"
   xmlns:inkscape="http://www.inkscape.org/namespaces/inkscape"
   xmlns:sodipodi="http://sodipodi.sourceforge.net/DTD/sodipodi-0.dtd"
   xmlns:xlink="http://www.w3.org/1999/xlink"
   xmlns="http://www.w3.org/2000/svg"
   xmlns:svg="http://www.w3.org/2000/svg"><defs
     id="defs321"><linearGradient
       inkscape:collect="always"
       xlink:href="#linearGradient1237"
       id="linearGradient4580"
       gradientUnits="userSpaceOnUse"
       gradientTransform="matrix(0.74996214,0,0,0.74996214,-15.559691,-47.165742)"
       x1="124.373"
       y1="301.07779"
       x2="182.8215"
       y2="243.30893" /><linearGradient
       inkscape:collect="always"
       id="linearGradient1237"><stop
         style="stop-color:#1c9ac8;stop-opacity:1;"
         offset="0"
         id="stop1233" /><stop
         style="stop-color:#2a89c6;stop-opacity:0.97647059;"
         offset="1"
         id="stop1235" /></linearGradient></defs><sodipodi:namedview
     id="namedview319"
     pagecolor="#ffc9ff"
     bordercolor="#666666"
     borderopacity="1.0"
     inkscape:showpageshadow="2"
     inkscape:pageopacity="0"
     inkscape:pagecheckerboard="0"
     inkscape:deskcolor="#d1d1d1"
     showgrid="false"
     inkscape:zoom="2.6877871"
     inkscape:cx="141.19422"
     inkscape:cy="94.873586"
     inkscape:window-width="1444"
     inkscape:window-height="870"
     inkscape:window-x="50"
     inkscape:window-y="30"
     inkscape:window-maximized="1"
     inkscape:current-layer="svg317" /><g
     id="g4680"
     transform="matrix(2.3034361,0,0,2.3034361,-193.05679,-266.49768)"><g
       id="g4592"
       transform="matrix(0.67761969,0,0,0.67761969,76.603859,37.273337)"><path
         id="path4578"
         style="fill:url(#linearGradient4580);fill-opacity:1;stroke:none;stroke-width:0.182169"
         d="m 85.309152,135.70466 c -2.988209,0.66545 -5.383506,2.91277 -5.941163,6.01196 -0.426091,2.36712 -0.08467,5.06562 -0.08467,7.46898 v 14.93793 c 0,4.51326 -0.844676,10.00187 0.22558,14.39144 0.866214,3.55249 4.517952,6.06806 8.154234,5.5946 3.44885,-0.44904 6.700033,-3.09489 9.655011,-4.78908 6.323106,-3.62498 12.675386,-7.21891 18.945666,-10.93446 3.19416,-1.89293 6.65851,-3.57663 7.07331,-7.72372 0.47146,-4.71182 -2.95938,-6.92202 -6.52681,-9.03592 -6.93537,-4.10993 -13.96022,-8.07896 -20.949533,-12.0958 -0.162352,-0.0933 -0.326504,-0.19078 -0.491,-0.28963 v 6.99648 c 5.132473,2.98662 10.216453,6.08127 15.428933,8.91778 1.6612,0.90393 3.30129,1.86685 4.91858,2.84747 0.71957,0.43648 1.60762,0.95814 1.54241,1.93094 -0.0646,0.96403 -0.99717,1.39519 -1.72458,1.82384 -1.63424,0.96294 -3.26976,1.92389 -4.91858,2.86169 -5.66803,3.22442 -11.284699,6.53958 -16.941805,9.78274 -1.776698,1.0187 -4.666092,3.54365 -6.740284,3.61779 -2.516492,0.09 -1.63953,-5.04142 -1.63953,-6.60935 v -22.04258 c 0,-2.00897 -0.201313,-4.13782 0.01425,-6.13649 z" /></g></g><g
     id="g4608"
     transform="matrix(2.5610823,0,0,2.5610823,-332.50656,26.704635)"
     style="fill:#ffffff"><text
       xml:space="preserve"
       style="font-weight:500;font-size:14.5772px;font-family:'Roboto Mono';-inkscape-font-specification:'Roboto Mono Medium';fill:#ffffff;fill-opacity:1;stroke:#7f7f7f;stroke-width:0.12171;stroke-linecap:round;stroke-linejoin:round;stroke-opacity:0.0996377;paint-order:stroke markers fill"
       x="131.28026"
       y="55.252636"
       id="text4602"><tspan
         sodipodi:role="line"
         id="tspan4600"
         style="font-style:normal;font-variant:normal;font-weight:bold;font-stretch:normal;font-size:14.5772px;font-family:'Lexend Deca';-inkscape-font-specification:'Lexend Deca, Bold';font-variant-ligatures:normal;font-variant-caps:normal;font-variant-numeric:normal;font-variant-east-asian:normal;fill:#ffffff;fill-opacity:1;stroke-width:0.12171"
         x="131.28026"
         y="55.252636">Big</tspan></text><text
       xml:space="preserve"
       style="font-weight:500;font-size:14.5772px;font-family:'Roboto Mono';-inkscape-font-specification:'Roboto Mono Medium';fill:#ffffff;fill-opacity:1;stroke:#7f7f7f;stroke-width:0.12171;stroke-linecap:round;stroke-linejoin:round;stroke-opacity:0.0996377;paint-order:stroke markers fill"
       x="153.76413"
       y="54.91713"
       id="text4606"><tspan
         sodipodi:role="line"
         style="font-style:normal;font-variant:normal;font-weight:normal;font-stretch:normal;font-size:14.5772px;font-family:'Roboto Mono';-inkscape-font-specification:'Roboto Mono';fill:#ffffff;fill-opacity:1;stroke-width:0.12171"
         x="153.76413"
         y="54.91713"
         id="tspan4604">Restreamer</tspan></text></g><path
     style="display:inline;fill:#2194c8;fill-opacity:0.992157;fill-rule:evenodd;stroke:none;stroke-width:0;stroke-linecap:round;stroke-dasharray:none;stroke-opacity:1"
     d="M 129.65147,128.33853 C 110.6322,126.36795 94.255374,116.71657 83.373711,101.06558 77.756297,92.986113 73.972387,82.929859 72.720231,72.752519 72.277697,69.155668 72.332315,61.115329 72.82338,57.56786 73.962826,49.336459 76.444455,41.841722 80.366701,34.78637 87.813799,21.390501 100.3454,10.870992 114.80222,5.8798843 l 1.37372,-0.4742662 v 4.5792963 4.5792976 l -1.37372,0.556632 c -4.31418,1.748109 -9.82724,5.04108 -13.82856,8.259853 -2.487381,2.000924 -6.99681,6.673273 -8.940222,9.263227 -5.767712,7.686537 -9.46299,16.838891 -10.644941,26.365064 -0.393672,3.172887 -0.331438,10.663257 0.11467,13.801147 2.557207,17.98727 13.277823,33.036495 29.370833,41.229735 11.51948,5.86479 25.50107,7.37414 38.1126,4.11434 21.78497,-5.63091 37.6605,-23.810212 40.44192,-46.310606 0.72634,-5.875766 0.13439,-14.329579 -1.4179,-20.249285 -4.01156,-15.298195 -14.81346,-28.336438 -29.1254,-35.155305 -7.14211,-3.402831 -15.32261,-5.305264 -22.81276,-5.305264 h -2.62691 V 6.8165118 2.4992732 h 3.21529 c 17.54698,0 35.7239,8.7383238 47.21138,22.6962838 7.74291,9.408063 12.43723,20.308915 14.22625,33.035341 0.51862,3.689149 0.39008,11.833374 -0.25396,16.091526 -1.56807,10.367585 -5.17853,19.386991 -11.09267,27.710966 -9.98579,14.05471 -25.17651,23.30332 -42.5782,25.92304 -3.35296,0.50476 -11.31605,0.71428 -14.52217,0.3821 z"
     id="path3834" /></svg>
